<mxfile host="app.diagrams.net" agent="Mozilla/5.0 (Windows NT 10.0; Win64; x64) AppleWebKit/537.36 (KHTML, like Gecko) Chrome/130.0.0.0 Safari/537.36" version="24.8.3">
  <diagram name="Page-1" id="90a13364-a465-7bf4-72fc-28e22215d7a0">
    <mxGraphModel dx="4104.5" dy="2133" grid="1" gridSize="10" guides="1" tooltips="1" connect="1" arrows="1" fold="1" page="1" pageScale="1.5" pageWidth="1169" pageHeight="826" background="none" math="0" shadow="0">
      <root>
        <mxCell id="0" style=";html=1;" />
        <mxCell id="1" style=";html=1;" parent="0" />
        <mxCell id="ZcoaK9EaI6mMWwp91kX6-79" style="edgeStyle=orthogonalEdgeStyle;rounded=0;orthogonalLoop=1;jettySize=auto;html=1;exitX=1;exitY=1;exitDx=0;exitDy=0;" edge="1" parent="1" source="ZcoaK9EaI6mMWwp91kX6-1" target="ZcoaK9EaI6mMWwp91kX6-31">
          <mxGeometry relative="1" as="geometry" />
        </mxCell>
        <mxCell id="ZcoaK9EaI6mMWwp91kX6-88" style="edgeStyle=orthogonalEdgeStyle;rounded=0;orthogonalLoop=1;jettySize=auto;html=1;exitX=1;exitY=0.5;exitDx=0;exitDy=0;entryX=0;entryY=0.5;entryDx=0;entryDy=0;" edge="1" parent="1" source="ZcoaK9EaI6mMWwp91kX6-1" target="ZcoaK9EaI6mMWwp91kX6-53">
          <mxGeometry relative="1" as="geometry" />
        </mxCell>
        <mxCell id="ZcoaK9EaI6mMWwp91kX6-1" value="&lt;font style=&quot;font-size: 14px;&quot;&gt;DOCTOR&lt;/font&gt;" style="rounded=1;whiteSpace=wrap;html=1;fillColor=#f0a30a;fontColor=#000000;strokeColor=#BD7000;" vertex="1" parent="1">
          <mxGeometry x="110" y="325" width="150" height="60" as="geometry" />
        </mxCell>
        <mxCell id="ZcoaK9EaI6mMWwp91kX6-72" style="edgeStyle=elbowEdgeStyle;rounded=0;orthogonalLoop=1;jettySize=auto;html=1;exitX=0;exitY=1;exitDx=0;exitDy=0;elbow=vertical;entryX=0.5;entryY=0;entryDx=0;entryDy=0;" edge="1" parent="1" source="ZcoaK9EaI6mMWwp91kX6-2">
          <mxGeometry relative="1" as="geometry">
            <mxPoint x="273.75" y="630" as="targetPoint" />
            <mxPoint x="802.5" y="120" as="sourcePoint" />
            <Array as="points">
              <mxPoint x="503.75" y="510" />
            </Array>
          </mxGeometry>
        </mxCell>
        <mxCell id="ZcoaK9EaI6mMWwp91kX6-76" style="edgeStyle=orthogonalEdgeStyle;rounded=0;orthogonalLoop=1;jettySize=auto;html=1;exitX=0.5;exitY=1;exitDx=0;exitDy=0;entryX=0.5;entryY=0;entryDx=0;entryDy=0;" edge="1" parent="1" source="ZcoaK9EaI6mMWwp91kX6-2" target="ZcoaK9EaI6mMWwp91kX6-26">
          <mxGeometry relative="1" as="geometry" />
        </mxCell>
        <mxCell id="ZcoaK9EaI6mMWwp91kX6-80" style="edgeStyle=orthogonalEdgeStyle;rounded=0;orthogonalLoop=1;jettySize=auto;html=1;exitX=0.75;exitY=1;exitDx=0;exitDy=0;entryX=1;entryY=0.5;entryDx=0;entryDy=0;" edge="1" parent="1" source="ZcoaK9EaI6mMWwp91kX6-2" target="ZcoaK9EaI6mMWwp91kX6-31">
          <mxGeometry relative="1" as="geometry" />
        </mxCell>
        <mxCell id="ZcoaK9EaI6mMWwp91kX6-83" style="rounded=0;orthogonalLoop=1;jettySize=auto;html=1;exitX=1;exitY=1;exitDx=0;exitDy=0;" edge="1" parent="1" source="ZcoaK9EaI6mMWwp91kX6-2" target="ZcoaK9EaI6mMWwp91kX6-18">
          <mxGeometry relative="1" as="geometry" />
        </mxCell>
        <mxCell id="ZcoaK9EaI6mMWwp91kX6-87" style="edgeStyle=orthogonalEdgeStyle;rounded=0;orthogonalLoop=1;jettySize=auto;html=1;exitX=1;exitY=0.5;exitDx=0;exitDy=0;entryX=0.5;entryY=0;entryDx=0;entryDy=0;" edge="1" parent="1" source="ZcoaK9EaI6mMWwp91kX6-2" target="ZcoaK9EaI6mMWwp91kX6-53">
          <mxGeometry relative="1" as="geometry" />
        </mxCell>
        <mxCell id="ZcoaK9EaI6mMWwp91kX6-90" style="edgeStyle=orthogonalEdgeStyle;rounded=0;orthogonalLoop=1;jettySize=auto;html=1;exitX=1;exitY=0.75;exitDx=0;exitDy=0;" edge="1" parent="1" source="ZcoaK9EaI6mMWwp91kX6-2" target="ZcoaK9EaI6mMWwp91kX6-58">
          <mxGeometry relative="1" as="geometry" />
        </mxCell>
        <mxCell id="ZcoaK9EaI6mMWwp91kX6-2" value="&lt;font style=&quot;font-size: 14px;&quot;&gt;STAFF&lt;/font&gt;" style="rounded=1;whiteSpace=wrap;html=1;fillColor=#f0a30a;fontColor=#000000;strokeColor=#BD7000;" vertex="1" parent="1">
          <mxGeometry x="808.75" y="60" width="170" height="60" as="geometry" />
        </mxCell>
        <mxCell id="ZcoaK9EaI6mMWwp91kX6-77" style="edgeStyle=orthogonalEdgeStyle;rounded=0;orthogonalLoop=1;jettySize=auto;html=1;exitX=0;exitY=0.5;exitDx=0;exitDy=0;entryX=1;entryY=0.5;entryDx=0;entryDy=0;" edge="1" parent="1" source="ZcoaK9EaI6mMWwp91kX6-3" target="ZcoaK9EaI6mMWwp91kX6-26">
          <mxGeometry relative="1" as="geometry">
            <mxPoint x="970.0000000000005" y="630" as="targetPoint" />
            <Array as="points">
              <mxPoint x="910" y="355" />
              <mxPoint x="910" y="690" />
            </Array>
          </mxGeometry>
        </mxCell>
        <mxCell id="ZcoaK9EaI6mMWwp91kX6-81" style="edgeStyle=orthogonalEdgeStyle;rounded=0;orthogonalLoop=1;jettySize=auto;html=1;exitX=0;exitY=1;exitDx=0;exitDy=0;entryX=1;entryY=0;entryDx=0;entryDy=0;" edge="1" parent="1" source="ZcoaK9EaI6mMWwp91kX6-3" target="ZcoaK9EaI6mMWwp91kX6-31">
          <mxGeometry relative="1" as="geometry" />
        </mxCell>
        <mxCell id="ZcoaK9EaI6mMWwp91kX6-91" style="rounded=0;orthogonalLoop=1;jettySize=auto;html=1;exitX=0.75;exitY=1;exitDx=0;exitDy=0;entryX=0.5;entryY=0;entryDx=0;entryDy=0;" edge="1" parent="1" source="ZcoaK9EaI6mMWwp91kX6-3" target="ZcoaK9EaI6mMWwp91kX6-60">
          <mxGeometry relative="1" as="geometry" />
        </mxCell>
        <mxCell id="ZcoaK9EaI6mMWwp91kX6-3" value="&lt;font style=&quot;font-size: 14px;&quot;&gt;PATIENT&amp;nbsp;&lt;/font&gt;" style="rounded=1;whiteSpace=wrap;html=1;fillColor=#f0a30a;fontColor=#000000;strokeColor=#BD7000;" vertex="1" parent="1">
          <mxGeometry x="1390" y="325" width="160" height="60" as="geometry" />
        </mxCell>
        <mxCell id="ZcoaK9EaI6mMWwp91kX6-11" value="&lt;font style=&quot;font-size: 14px;&quot;&gt;Can view and update patient records, view appointments, and manage diagnoses and treatments&lt;/font&gt;" style="shape=callout;whiteSpace=wrap;html=1;perimeter=calloutPerimeter;align=center;" vertex="1" parent="1">
          <mxGeometry x="-80" y="180" width="280" height="140" as="geometry" />
        </mxCell>
        <mxCell id="ZcoaK9EaI6mMWwp91kX6-12" value="&lt;font style=&quot;font-size: 14px;&quot;&gt; Can schedule appointments, view medical records, and receive bills.&lt;/font&gt;" style="shape=callout;whiteSpace=wrap;html=1;perimeter=calloutPerimeter;align=center;" vertex="1" parent="1">
          <mxGeometry x="1510" y="180" width="280" height="140" as="geometry" />
        </mxCell>
        <mxCell id="ZcoaK9EaI6mMWwp91kX6-13" value="&lt;font style=&quot;font-size: 14px;&quot;&gt;&lt;br&gt; Can manage patient information, handle scheduling for rooms and appointments, and process bills&lt;br&gt;&lt;/font&gt;" style="shape=callout;whiteSpace=wrap;html=1;perimeter=calloutPerimeter;align=center;" vertex="1" parent="1">
          <mxGeometry x="690" y="-90" width="270" height="140" as="geometry" />
        </mxCell>
        <mxCell id="ZcoaK9EaI6mMWwp91kX6-18" value="&lt;span style=&quot;font-size: 14px;&quot;&gt;Manage Room Assingment&amp;nbsp;&lt;/span&gt;" style="rhombus;whiteSpace=wrap;html=1;fillColor=#f0a30a;strokeColor=#BD7000;fontColor=#000000;rounded=1;" vertex="1" parent="1">
          <mxGeometry x="910" y="810" width="127.5" height="140" as="geometry" />
        </mxCell>
        <mxCell id="ZcoaK9EaI6mMWwp91kX6-22" value="&lt;font style=&quot;font-size: 14px;&quot;&gt;Staff can create, update, or view patient details (name, gender, contact info, insurance details).&lt;/font&gt;" style="ellipse;whiteSpace=wrap;html=1;fillColor=#f0a30a;strokeColor=#BD7000;fontColor=#000000;rounded=1;align=center;" vertex="1" parent="1">
          <mxGeometry x="0.5" y="900" width="217.5" height="230" as="geometry" />
        </mxCell>
        <mxCell id="ZcoaK9EaI6mMWwp91kX6-78" style="edgeStyle=orthogonalEdgeStyle;rounded=0;orthogonalLoop=1;jettySize=auto;html=1;exitX=0.5;exitY=1;exitDx=0;exitDy=0;entryX=0.5;entryY=0;entryDx=0;entryDy=0;" edge="1" parent="1" source="ZcoaK9EaI6mMWwp91kX6-26" target="ZcoaK9EaI6mMWwp91kX6-28">
          <mxGeometry relative="1" as="geometry">
            <mxPoint x="360" y="940" as="targetPoint" />
          </mxGeometry>
        </mxCell>
        <mxCell id="ZcoaK9EaI6mMWwp91kX6-26" value="&lt;font style=&quot;font-size: 14px;&quot;&gt;Schedule Appointment&lt;/font&gt;" style="rhombus;whiteSpace=wrap;html=1;fillColor=#f0a30a;strokeColor=#BD7000;fontColor=#000000;rounded=1;" vertex="1" parent="1">
          <mxGeometry x="470" y="620" width="127.5" height="140" as="geometry" />
        </mxCell>
        <mxCell id="ZcoaK9EaI6mMWwp91kX6-28" value="&lt;font style=&quot;font-size: 14px;&quot;&gt;Patients can request appointments with doctors, and staff can schedule them.&lt;/font&gt;" style="ellipse;whiteSpace=wrap;html=1;fillColor=#f0a30a;strokeColor=#BD7000;fontColor=#000000;rounded=1;align=center;" vertex="1" parent="1">
          <mxGeometry x="270" y="900" width="217.5" height="230" as="geometry" />
        </mxCell>
        <mxCell id="ZcoaK9EaI6mMWwp91kX6-82" style="edgeStyle=orthogonalEdgeStyle;rounded=0;orthogonalLoop=1;jettySize=auto;html=1;exitX=0.5;exitY=1;exitDx=0;exitDy=0;entryX=0.5;entryY=0;entryDx=0;entryDy=0;" edge="1" parent="1" source="ZcoaK9EaI6mMWwp91kX6-31" target="ZcoaK9EaI6mMWwp91kX6-35">
          <mxGeometry relative="1" as="geometry" />
        </mxCell>
        <mxCell id="ZcoaK9EaI6mMWwp91kX6-31" value="&lt;font style=&quot;font-size: 14px;&quot;&gt;View Appointment&lt;/font&gt;" style="rhombus;whiteSpace=wrap;html=1;fillColor=#f0a30a;strokeColor=#BD7000;fontColor=#000000;rounded=1;" vertex="1" parent="1">
          <mxGeometry x="587.5" y="770" width="127.5" height="140" as="geometry" />
        </mxCell>
        <mxCell id="ZcoaK9EaI6mMWwp91kX6-35" value="&lt;font style=&quot;font-size: 14px;&quot;&gt;Patients can view their scheduled appointments. Doctors and staff can also view appointments for scheduling purposes.&lt;/font&gt;" style="ellipse;whiteSpace=wrap;html=1;fillColor=#f0a30a;strokeColor=#BD7000;fontColor=#000000;rounded=1;align=center;" vertex="1" parent="1">
          <mxGeometry x="510" y="1020" width="217.5" height="230" as="geometry" />
        </mxCell>
        <mxCell id="ZcoaK9EaI6mMWwp91kX6-37" value="Actor" style="shape=umlActor;verticalLabelPosition=bottom;verticalAlign=top;html=1;outlineConnect=0;" vertex="1" parent="1">
          <mxGeometry x="20" y="325" width="30" height="60" as="geometry" />
        </mxCell>
        <mxCell id="ZcoaK9EaI6mMWwp91kX6-44" value="Actor" style="shape=umlActor;verticalLabelPosition=bottom;verticalAlign=top;html=1;outlineConnect=0;" vertex="1" parent="1">
          <mxGeometry x="752.5" y="50" width="30" height="60" as="geometry" />
        </mxCell>
        <mxCell id="ZcoaK9EaI6mMWwp91kX6-45" value="Actor" style="shape=umlActor;verticalLabelPosition=bottom;verticalAlign=top;html=1;outlineConnect=0;" vertex="1" parent="1">
          <mxGeometry x="1600" y="325" width="30" height="60" as="geometry" />
        </mxCell>
        <mxCell id="ZcoaK9EaI6mMWwp91kX6-75" style="edgeStyle=orthogonalEdgeStyle;rounded=0;orthogonalLoop=1;jettySize=auto;html=1;exitX=0.5;exitY=1;exitDx=0;exitDy=0;entryX=0.5;entryY=0;entryDx=0;entryDy=0;" edge="1" parent="1" source="ZcoaK9EaI6mMWwp91kX6-46" target="ZcoaK9EaI6mMWwp91kX6-22">
          <mxGeometry relative="1" as="geometry">
            <mxPoint x="110" y="880" as="targetPoint" />
            <Array as="points">
              <mxPoint x="109" y="760" />
              <mxPoint x="109" y="890" />
            </Array>
          </mxGeometry>
        </mxCell>
        <mxCell id="ZcoaK9EaI6mMWwp91kX6-46" value="&lt;font style=&quot;font-size: 14px;&quot;&gt;Manage Patient information&amp;nbsp;&lt;/font&gt;" style="rhombus;whiteSpace=wrap;html=1;fillColor=#f0a30a;strokeColor=#BD7000;fontColor=#000000;rounded=1;" vertex="1" parent="1">
          <mxGeometry x="210" y="620" width="127.5" height="140" as="geometry" />
        </mxCell>
        <mxCell id="ZcoaK9EaI6mMWwp91kX6-48" value="&lt;font style=&quot;font-size: 14px;&quot;&gt;Staff can assign rooms to patients and manage room availability status.&lt;/font&gt;" style="ellipse;whiteSpace=wrap;html=1;fillColor=#f0a30a;strokeColor=#BD7000;fontColor=#000000;rounded=1;align=center;" vertex="1" parent="1">
          <mxGeometry x="782.5" y="1050" width="217.5" height="230" as="geometry" />
        </mxCell>
        <mxCell id="ZcoaK9EaI6mMWwp91kX6-89" style="edgeStyle=orthogonalEdgeStyle;rounded=0;orthogonalLoop=1;jettySize=auto;html=1;exitX=0.5;exitY=1;exitDx=0;exitDy=0;entryX=0;entryY=0;entryDx=0;entryDy=0;" edge="1" parent="1" source="ZcoaK9EaI6mMWwp91kX6-53" target="ZcoaK9EaI6mMWwp91kX6-57">
          <mxGeometry relative="1" as="geometry" />
        </mxCell>
        <mxCell id="ZcoaK9EaI6mMWwp91kX6-53" value="&lt;font style=&quot;font-size: 14px;&quot;&gt;Manage Medical Records&lt;/font&gt;" style="rhombus;whiteSpace=wrap;html=1;fillColor=#f0a30a;strokeColor=#BD7000;fontColor=#000000;rounded=1;" vertex="1" parent="1">
          <mxGeometry x="1067.5" y="650" width="127.5" height="140" as="geometry" />
        </mxCell>
        <mxCell id="ZcoaK9EaI6mMWwp91kX6-57" value="&lt;font style=&quot;font-size: 14px;&quot;&gt;Doctors can create and update medical records for diagnoses, treatments, and prescriptions. Staff may view or assist with updates as needed.&lt;/font&gt;" style="ellipse;whiteSpace=wrap;html=1;fillColor=#f0a30a;strokeColor=#BD7000;fontColor=#000000;rounded=1;align=center;" vertex="1" parent="1">
          <mxGeometry x="1022.5" y="990" width="217.5" height="230" as="geometry" />
        </mxCell>
        <mxCell id="ZcoaK9EaI6mMWwp91kX6-92" style="rounded=0;orthogonalLoop=1;jettySize=auto;html=1;exitX=0.5;exitY=1;exitDx=0;exitDy=0;entryX=0;entryY=0;entryDx=0;entryDy=0;" edge="1" parent="1" source="ZcoaK9EaI6mMWwp91kX6-58" target="ZcoaK9EaI6mMWwp91kX6-61">
          <mxGeometry relative="1" as="geometry" />
        </mxCell>
        <mxCell id="ZcoaK9EaI6mMWwp91kX6-58" value="&lt;font style=&quot;font-size: 14px;&quot;&gt;Generate Bill&lt;/font&gt;" style="rhombus;whiteSpace=wrap;html=1;fillColor=#f0a30a;strokeColor=#BD7000;fontColor=#000000;rounded=1;" vertex="1" parent="1">
          <mxGeometry x="1250" y="640" width="127.5" height="140" as="geometry" />
        </mxCell>
        <mxCell id="ZcoaK9EaI6mMWwp91kX6-60" value="&lt;font style=&quot;font-size: 14px;&quot;&gt;View Bill&lt;/font&gt;" style="rhombus;whiteSpace=wrap;html=1;fillColor=#f0a30a;strokeColor=#BD7000;fontColor=#000000;rounded=1;" vertex="1" parent="1">
          <mxGeometry x="1440" y="720" width="127.5" height="140" as="geometry" />
        </mxCell>
        <mxCell id="ZcoaK9EaI6mMWwp91kX6-61" value="&lt;font style=&quot;font-size: 14px;&quot;&gt;Staff can generate bills based on treatment and services received by the patient&lt;/font&gt;" style="ellipse;whiteSpace=wrap;html=1;fillColor=#f0a30a;strokeColor=#BD7000;fontColor=#000000;rounded=1;align=center;" vertex="1" parent="1">
          <mxGeometry x="1280" y="980" width="217.5" height="230" as="geometry" />
        </mxCell>
        <mxCell id="ZcoaK9EaI6mMWwp91kX6-62" value="&lt;font style=&quot;font-size: 14px;&quot;&gt;Patients can view their bills, and staff can access billing information for processing&lt;/font&gt;" style="ellipse;whiteSpace=wrap;html=1;fillColor=#f0a30a;strokeColor=#BD7000;fontColor=#000000;rounded=1;align=center;" vertex="1" parent="1">
          <mxGeometry x="1490" y="1380" width="217.5" height="230" as="geometry" />
        </mxCell>
        <mxCell id="ZcoaK9EaI6mMWwp91kX6-84" style="edgeStyle=orthogonalEdgeStyle;rounded=0;orthogonalLoop=1;jettySize=auto;html=1;exitX=0.5;exitY=1;exitDx=0;exitDy=0;entryX=0.5;entryY=0;entryDx=0;entryDy=0;" edge="1" parent="1" source="ZcoaK9EaI6mMWwp91kX6-18" target="ZcoaK9EaI6mMWwp91kX6-48">
          <mxGeometry relative="1" as="geometry">
            <mxPoint x="930" y="1010" as="targetPoint" />
          </mxGeometry>
        </mxCell>
        <mxCell id="ZcoaK9EaI6mMWwp91kX6-93" style="edgeStyle=orthogonalEdgeStyle;rounded=0;orthogonalLoop=1;jettySize=auto;html=1;exitX=1;exitY=0.5;exitDx=0;exitDy=0;entryX=0.45;entryY=0.015;entryDx=0;entryDy=0;entryPerimeter=0;" edge="1" parent="1" source="ZcoaK9EaI6mMWwp91kX6-60" target="ZcoaK9EaI6mMWwp91kX6-62">
          <mxGeometry relative="1" as="geometry" />
        </mxCell>
      </root>
    </mxGraphModel>
  </diagram>
</mxfile>
